<?xml version="1.0" standalone="no"?><!DOCTYPE svg PUBLIC "-//W3C//DTD SVG 1.1//EN" "http://www.w3.org/Graphics/SVG/1.1/DTD/svg11.dtd"><svg class="icon" width="200px" height="200.00px" viewBox="0 0 1024 1024" version="1.1" xmlns="http://www.w3.org/2000/svg"><path fill="#333333" d="M512 0C229.233778 0 0 229.233778 0 512s229.233778 512 512 512 512-229.233778 512-512S794.766222 0 512 0z m281.315556 371.228444L473.201778 691.342222c-0.455111 0.540444-0.625778 1.194667-1.137778 1.706667a28.273778 28.273778 0 0 1-20.423111 8.277333 28.16 28.16 0 0 1-20.366222-8.277333c-0.512-0.512-0.654222-1.166222-1.137778-1.706667l-199.424-199.424a28.416 28.416 0 1 1 40.220444-40.220444l180.736 180.736 301.425778-301.425778a28.416 28.416 0 1 1 40.220445 40.220444z" /></svg>