<?xml version="1.0" standalone="no"?><!DOCTYPE svg PUBLIC "-//W3C//DTD SVG 1.1//EN" "http://www.w3.org/Graphics/SVG/1.1/DTD/svg11.dtd"><svg class="icon" width="200px" height="200.00px" viewBox="0 0 1024 1024" version="1.1" xmlns="http://www.w3.org/2000/svg"><path fill="#333333" d="M823.424 395.296l-287.52-289.248a31.904 31.904 0 0 0-10.816-7.104A31.584 31.584 0 0 0 512 96a31.456 31.456 0 0 0-26.4 14.976l-254.4 253.952a31.968 31.968 0 0 0 22.624 54.624 32 32 0 0 0 22.624-9.344L480 206.976V768a32 32 0 1 0 64 0V204.96l234.048 235.456a31.936 31.936 0 0 0 45.248 0.128 31.968 31.968 0 0 0 0.128-45.248zM896 704a32 32 0 0 0-32 32v128H160v-128a32 32 0 1 0-64 0v160a32 32 0 0 0 32 32h768a32 32 0 0 0 32-32v-160a32 32 0 0 0-32-32z" /></svg>